<svg width="7800" height="7800" viewBox="0 0 7800 7800" fill="none" xmlns="http://www.w3.org/2000/svg">
<rect width="7800" height="7800" rx="1500" fill="#F4B005"/>
<rect x="395" y="395" width="7009" height="7009" rx="1300" stroke="black" stroke-width="400"/>
<rect x="5540.99" y="2857.1" width="1065" height="1606.38" rx="129" transform="rotate(-133.344 5540.99 2857.1)" fill="black"/>
<path d="M4248.66 3389.93C4176.27 3405.15 4113.37 3338.5 4132.75 3267.12L4569.23 1659.17C4589.49 1584.53 4683.68 1560.91 4736.77 1617.16L5930.77 2882.26C5983.85 2938.51 5954.83 3031.18 5879.14 3047.09L4248.66 3389.93Z" fill="black"/>
<path fill-rule="evenodd" clip-rule="evenodd" d="M1108.01 5106.24C741.218 5598.67 766.473 6366.84 1217.62 6366.84C1217.62 7236.07 2649.96 7236.07 2649.96 6423.31H5155.33C5155.33 7234.43 6577.04 7222.98 6577.04 6393.85C6804.14 6361.99 6898.5 6287.05 6937.99 6048.45C6960.68 5716.44 6937.99 5524.54 6833.22 5171.85C6729.08 4924.89 6626.43 4841.92 6454.18 4760.27C6404.58 4736.76 6369 4690.58 6355.54 4637.36C5993.01 3204.51 3142.22 3407.96 2344 4677.68C2325.61 4706.93 2296.67 4728.09 2262.83 4735.09L1471.91 4898.77C1330.54 4928.03 1194.24 4990.47 1108.01 5106.24ZM5851.04 6636.12C5622.31 6636.12 5436.89 6450.7 5436.89 6221.97C5436.89 5993.23 5622.31 5807.81 5851.04 5807.81C6079.77 5807.81 6265.2 5993.23 6265.2 6221.97C6265.2 6450.7 6079.77 6636.12 5851.04 6636.12ZM1941.97 6636.12C1713.24 6636.12 1527.82 6450.7 1527.82 6221.97C1527.82 5993.23 1713.24 5807.81 1941.97 5807.81C2170.7 5807.81 2356.12 5993.23 2356.12 6221.97C2356.12 6450.7 2170.7 6636.12 1941.97 6636.12ZM4520.19 4886.2V4018.6C4520.19 4000.52 4535.38 3985.86 4553.46 3985.95C5414.4 3990.31 5642.33 4166.98 5786.41 4746.68C5808.38 4835.06 5739.7 4918.94 5648.63 4918.94H4552.93C4534.85 4918.94 4520.19 4904.28 4520.19 4886.2ZM2812.74 4816.97C2873.6 4461.87 3383.52 4056.01 4135.67 3987.81C4159.34 3985.66 4179.7 4004.44 4179.7 4028.21V4886.19C4179.7 4904.28 4165.05 4918.93 4146.96 4918.93H2910.31C2852.44 4918.93 2802.96 4874.02 2812.74 4816.97Z" fill="black"/>
</svg>
