<svg width="8979" height="8979" viewBox="0 0 8979 8979" fill="none" xmlns="http://www.w3.org/2000/svg">
<rect width="8979" height="8979" rx="1600" fill="#4B5EC5"/>
<rect x="622.5" y="622.5" width="7734" height="7734" rx="1270.5" stroke="#111111" stroke-width="459"/>
<path d="M1809 4490H2198.28V5280.66C2268.84 5205.24 2373.46 5139.56 2521.87 5139.56C2655.68 5139.56 2799.23 5183.35 2906.28 5285.52C3006.03 5380.4 3083.89 5531.24 3083.89 5716.13C3083.89 5888.86 3018.2 6042.12 2908.71 6149.17C2806.53 6248.91 2682.45 6300 2526.73 6300C2451.31 6300 2307.76 6285.4 2198.28 6144.3V6263.51H1809V4490ZM2436.71 5969.14C2492.67 5969.14 2555.93 5949.68 2609.46 5896.16C2660.55 5845.07 2684.88 5781.81 2684.88 5725.86C2684.88 5652.88 2653.25 5584.76 2609.46 5540.97C2575.39 5506.91 2519.43 5470.42 2436.71 5470.42C2363.72 5470.42 2302.9 5497.18 2259.1 5543.4C2220.18 5584.76 2186.11 5657.74 2186.11 5718.56C2186.11 5784.25 2217.74 5857.23 2268.84 5903.45C2310.2 5939.95 2373.46 5969.14 2436.71 5969.14Z" fill="#111111"/>
<path d="M3772.94 5470.42C3709.68 5470.42 3641.56 5499.61 3597.77 5540.97C3549.11 5587.19 3522.34 5655.31 3522.34 5718.56C3522.34 5784.25 3553.97 5847.5 3597.77 5891.29C3643.99 5937.51 3707.25 5964.27 3772.94 5964.27C3836.2 5964.27 3899.46 5937.51 3945.68 5891.29C3994.34 5845.07 4021.11 5781.81 4021.11 5718.56C4021.11 5660.17 3994.34 5589.62 3945.68 5540.97C3901.89 5499.61 3833.77 5470.42 3772.94 5470.42ZM4424.98 5718.56C4424.98 5864.53 4376.32 6003.2 4257.11 6119.97C4113.56 6261.08 3945.68 6300 3770.51 6300C3612.36 6300 3437.19 6268.37 3286.34 6119.97C3167.12 6003.2 3118.47 5864.53 3118.47 5718.56C3118.47 5523.94 3206.05 5397.43 3286.34 5319.58C3376.36 5232 3534.51 5139.56 3770.51 5139.56C4011.37 5139.56 4167.09 5234.44 4257.11 5319.58C4337.4 5397.43 4424.98 5523.94 4424.98 5718.56Z" fill="#111111"/>
<path d="M5114.32 5470.42C5051.06 5470.42 4982.94 5499.61 4939.14 5540.97C4890.48 5587.19 4863.72 5655.31 4863.72 5718.56C4863.72 5784.25 4895.35 5847.5 4939.14 5891.29C4985.37 5937.51 5048.63 5964.27 5114.32 5964.27C5177.58 5964.27 5240.84 5937.51 5287.06 5891.29C5335.72 5845.07 5362.49 5781.81 5362.49 5718.56C5362.49 5660.17 5335.72 5589.62 5287.06 5540.97C5243.27 5499.61 5175.15 5470.42 5114.32 5470.42ZM5766.36 5718.56C5766.36 5864.53 5717.7 6003.2 5598.49 6119.97C5454.94 6261.08 5287.06 6300 5111.89 6300C4953.74 6300 4778.57 6268.37 4627.72 6119.97C4508.5 6003.2 4459.84 5864.53 4459.84 5718.56C4459.84 5523.94 4547.43 5397.43 4627.72 5319.58C4717.74 5232 4875.89 5139.56 5111.89 5139.56C5352.75 5139.56 5508.47 5234.44 5598.49 5319.58C5678.78 5397.43 5766.36 5523.94 5766.36 5718.56Z" fill="#111111"/>
<path d="M5845.02 4490H6234.3V5567.73L6601.68 5176.05H7129.64L6616.28 5677.2L7171 6263.51H6630.88L6234.3 5818.31V6263.51H5845.02V4490Z" fill="#111111"/>
<path d="M1809 2310H2229.84V3575.18H2735.83V3932.83H1809V2310Z" fill="#111111"/>
<path d="M3379.81 3139.67C3316.56 3139.67 3248.45 3168.86 3204.66 3210.22C3156.01 3256.45 3129.25 3324.58 3129.25 3387.83C3129.25 3453.53 3160.87 3516.79 3204.66 3560.58C3250.88 3606.81 3314.13 3633.57 3379.81 3633.57C3443.06 3633.57 3506.3 3606.81 3552.52 3560.58C3601.18 3514.35 3627.93 3451.09 3627.93 3387.83C3627.93 3329.44 3601.18 3258.88 3552.52 3210.22C3508.74 3168.86 3440.62 3139.67 3379.81 3139.67ZM4031.75 3387.83C4031.75 3533.82 3983.1 3672.5 3863.9 3789.29C3720.37 3930.4 3552.52 3969.33 3377.38 3969.33C3219.25 3969.33 3044.11 3937.7 2893.28 3789.29C2774.09 3672.5 2725.43 3533.82 2725.43 3387.83C2725.43 3193.19 2813.01 3066.67 2893.28 2988.82C2983.29 2901.23 3141.41 2808.77 3377.38 2808.77C3618.2 2808.77 3773.89 2903.66 3863.9 2988.82C3944.18 3066.67 4031.75 3193.19 4031.75 3387.83Z" fill="#111111"/>
<path d="M4944.78 2845.27H5334V3864.71C5334 4027.72 5319.4 4176.14 5185.61 4314.82C5046.95 4455.94 4864.5 4490 4706.38 4490C4504.48 4490 4336.63 4438.91 4197.97 4297.79C4134.72 4232.1 4093.36 4166.41 4078.77 4071.52H4511.77C4526.37 4115.31 4565.29 4183.44 4694.22 4183.44C4755.04 4183.44 4815.85 4171.27 4866.94 4122.61C4932.62 4061.79 4944.78 3983.93 4944.78 3920.67V3811.18C4823.15 3940.13 4706.38 3954.73 4618.81 3954.73C4419.33 3954.73 4290.41 3876.88 4217.43 3801.45C4120.12 3701.7 4066.6 3553.28 4066.6 3404.87C4066.6 3234.55 4132.29 3078.84 4227.16 2979.08C4331.76 2869.6 4477.72 2813.64 4621.24 2813.64C4689.36 2813.64 4830.45 2828.24 4944.78 2957.19V2845.27ZM4713.68 3137.23C4648 3137.23 4592.05 3159.13 4540.97 3210.22C4485.02 3268.62 4465.55 3334.31 4465.55 3385.4C4465.55 3448.66 4492.31 3514.35 4540.97 3563.01C4592.05 3614.11 4657.73 3633.57 4716.11 3633.57C4776.93 3633.57 4845.04 3606.81 4891.26 3560.58C4939.92 3511.92 4964.24 3441.36 4964.24 3385.4C4964.24 3329.44 4932.62 3254.02 4886.4 3207.79C4842.61 3164 4779.36 3137.23 4713.68 3137.23Z" fill="#111111"/>
</svg>
