<svg width="11781" height="4328" viewBox="0 0 11781 4328" fill="none" xmlns="http://www.w3.org/2000/svg">
<path d="M902.241 3056.94H114.425L632.001 0H1415.24L2033.58 1631.59L2688.57 0H3480.96L3939 3056.94H3146.6L2922.16 1297.02L2184.73 3056.94H1868.69L1163.32 1297.02L902.241 3056.94Z" fill="#101010"/>
<path d="M5501.24 2044.07H5001.99V3056.94H4209.59V0H5473.76C5739.42 0 6014.24 50.4144 6247.84 274.987C6486.01 504.143 6531.82 760.797 6531.82 1017.45C6531.82 1260.36 6499.75 1544.51 6261.58 1778.25C6023.4 2011.99 5739.42 2044.07 5501.24 2044.07ZM5001.99 641.636V1402.43H5267.65C5350.09 1402.43 5505.82 1393.27 5602.01 1306.19C5698.2 1223.69 5702.78 1099.95 5702.78 1026.62C5702.78 944.121 5693.62 834.127 5611.17 751.631C5519.56 655.385 5372.99 641.636 5272.23 641.636H5001.99Z" fill="#101010"/>
<path d="M8018.2 2044.07H7518.94V3056.94H6726.55V0H7990.72C8256.37 0 8531.19 50.4144 8764.79 274.987C9002.97 504.143 9048.77 760.797 9048.77 1017.45C9048.77 1260.36 9016.71 1544.51 8778.53 1778.25C8540.35 2011.99 8256.37 2044.07 8018.2 2044.07ZM7518.94 641.636V1402.43H7784.6C7867.05 1402.43 8022.78 1393.27 8118.96 1306.19C8215.15 1223.69 8219.73 1099.95 8219.73 1026.62C8219.73 944.121 8210.57 834.127 8128.13 751.631C8036.52 655.385 7889.95 641.636 7789.18 641.636H7518.94Z" fill="#101010"/>
<path d="M9243.5 0H10480.2C10709.2 0 11002.3 36.665 11226.8 270.404C11400.8 449.145 11487.9 714.966 11487.9 957.871C11487.9 1219.11 11396.3 1448.26 11245.1 1594.92C11126 1709.5 10965.7 1778.25 10823.7 1805.75L11781 3056.94H10796.2L10035.9 1883.66V3056.94H9243.5V0ZM10035.9 614.137V1370.35H10187C10306.1 1370.35 10475.6 1338.27 10571.8 1246.61C10631.3 1187.03 10672.6 1086.2 10672.6 989.953C10672.6 898.29 10635.9 797.462 10567.2 733.298C10493.9 659.969 10361.1 614.137 10187 614.137H10035.9Z" fill="#101010"/>
<path d="M4408.84 3950.06H4427.6C4463.18 3950.06 4489.02 3942.69 4505.14 3927.95C4521.26 3913.21 4529.32 3889.57 4529.32 3857.03C4529.32 3827 4521.26 3805.17 4505.14 3791.54C4489.02 3777.64 4463.18 3770.68 4427.6 3770.68H4408.84V3950.06ZM4277.52 4285.03V3674.32H4427.6C4507.65 3674.32 4566.71 3689.62 4604.78 3720.21C4643.14 3750.8 4662.31 3798.08 4662.31 3862.04C4662.31 3921.28 4643 3967.72 4604.37 4001.37C4566.01 4035.02 4512.79 4051.85 4444.69 4051.85H4408.84V4285.03H4277.52Z" fill="#101010"/>
<path d="M4863.68 3875.81V4091.06C4863.68 4127.21 4870.62 4153.07 4884.52 4168.65C4898.7 4184.22 4921.63 4192.01 4953.31 4192.01C4984.72 4192.01 5007.51 4184.22 5021.68 4168.65C5035.86 4152.8 5042.94 4126.93 5042.94 4091.06V3875.81H5161.76V4091.06C5161.76 4163.09 5144.94 4216.2 5111.31 4250.41C5077.68 4284.34 5025.57 4301.3 4954.98 4301.3C4882.99 4301.3 4830.05 4284.34 4796.14 4250.41C4762.51 4216.48 4745.69 4163.36 4745.69 4091.06V3875.81H4863.68ZM5076.29 3661.39L4945.81 3815.32H4886.61L4968.73 3661.39H5076.29Z" fill="#101010"/>
<path d="M5397.19 4079.79C5397.19 4116.78 5406.22 4145.57 5424.29 4166.14C5442.63 4186.72 5468.06 4197.01 5500.58 4197.01C5533.1 4197.01 5558.39 4186.72 5576.46 4166.14C5594.8 4145.57 5603.97 4116.78 5603.97 4079.79C5603.97 4042.81 5594.66 4013.75 5576.04 3992.61C5557.7 3971.2 5532.27 3960.49 5499.75 3960.49C5468.34 3960.49 5443.33 3971.2 5424.71 3992.61C5406.36 4014.02 5397.19 4043.08 5397.19 4079.79ZM5288.8 4285.03V3638.45H5402.61V3871.64C5402.61 3884.43 5402.05 3897.22 5400.94 3910.01C5400.11 3922.53 5398.86 3934.76 5397.19 3946.72C5416.65 3917.24 5437.77 3895.83 5460.56 3882.48C5483.35 3868.85 5509.47 3862.04 5538.94 3862.04C5597.3 3862.04 5642.74 3881.37 5675.26 3920.02C5708.06 3958.4 5724.46 4012.08 5724.46 4081.05C5724.46 4147.51 5707.92 4200.91 5674.84 4241.23C5641.77 4281.28 5598.27 4301.3 5544.36 4301.3C5511.84 4301.3 5484.18 4295.32 5461.39 4283.36C5438.88 4271.13 5419.56 4252.08 5403.44 4226.21L5404.28 4285.03H5288.8Z" fill="#101010"/>
<path d="M5832.32 4285.03V3638.45H5950.71V4285.03H5832.32Z" fill="#101010"/>
<path d="M6078.17 3707.69C6078.17 3688.78 6084.98 3672.51 6098.6 3658.89C6112.22 3645.26 6128.47 3638.45 6147.37 3638.45C6166.55 3638.45 6182.95 3645.26 6196.57 3658.89C6210.46 3672.24 6217.41 3688.51 6217.41 3707.69C6217.41 3726.88 6210.46 3743.29 6196.57 3756.92C6182.95 3770.55 6166.55 3777.36 6147.37 3777.36C6128.47 3777.36 6112.22 3770.41 6098.6 3756.5C6084.98 3742.6 6078.17 3726.33 6078.17 3707.69ZM6088.59 4285.03V3875.81H6206.99V4285.03H6088.59Z" fill="#101010"/>
<path d="M6641.7 4272.94C6625.58 4282.67 6608.62 4289.76 6590.84 4294.21C6573.05 4298.94 6553.59 4301.3 6532.47 4301.3C6467.99 4301.3 6415.46 4280.86 6374.88 4239.98C6334.31 4198.82 6314.02 4145.43 6314.02 4079.79C6314.02 4015.55 6334.44 3963.27 6375.3 3922.95C6416.16 3882.34 6469.1 3862.04 6534.14 3862.04C6555.82 3862.04 6575.27 3864.13 6592.5 3868.3C6609.74 3872.47 6626.13 3879.01 6641.7 3887.9L6640.86 4007.21C6628.36 3994.42 6613.91 3984.54 6597.51 3977.59C6581.11 3970.64 6563.74 3967.16 6545.4 3967.16C6512.04 3967.16 6485.36 3977.45 6465.35 3998.03C6445.34 4018.33 6435.33 4045.31 6435.33 4078.96C6435.33 4113.44 6445.48 4140.98 6465.77 4161.56C6486.33 4181.86 6513.99 4192.01 6548.73 4192.01C6567.91 4192.01 6584.86 4188.53 6599.59 4181.58C6614.6 4174.63 6628.36 4163.78 6640.86 4149.04L6641.7 4272.94Z" fill="#101010"/>
<path d="M7053.48 4081.05C7053.48 4047.67 7043.75 4021.11 7024.29 4001.37C7004.84 3981.35 6978.71 3971.33 6945.92 3971.33C6913.12 3971.33 6887.14 3981.21 6867.96 4000.95C6848.78 4020.7 6839.19 4047.4 6839.19 4081.05C6839.19 4114.42 6848.78 4141.12 6867.96 4161.14C6887.14 4181.16 6913.12 4191.17 6945.92 4191.17C6978.44 4191.17 7004.42 4181.16 7023.88 4161.14C7043.61 4141.12 7053.48 4114.42 7053.48 4081.05ZM7174.38 4081.88C7174.38 4144.73 7152.84 4197.01 7109.76 4238.73C7066.96 4280.44 7012.62 4301.3 6946.75 4301.3C6880.33 4301.3 6825.57 4280.44 6782.49 4238.73C6739.41 4197.01 6717.87 4144.73 6717.87 4081.88C6717.87 4019.31 6739.55 3967.02 6782.91 3925.03C6826.27 3883.04 6880.88 3862.04 6946.75 3862.04C7012.9 3862.04 7067.37 3882.76 7110.18 3924.2C7152.98 3965.63 7174.38 4018.19 7174.38 4081.88Z" fill="#101010"/>
<path d="M9122.57 3976.76H9141.33C9176.91 3976.76 9202.76 3969.39 9218.88 3954.65C9235 3939.91 9243.06 3916.27 9243.06 3883.73C9243.06 3853.7 9235 3831.87 9218.88 3818.24C9202.76 3804.33 9176.91 3797.38 9141.33 3797.38H9122.57V3976.76ZM8991.25 4311.73V3701.02H9141.33C9221.38 3701.02 9280.44 3716.32 9318.51 3746.91C9356.87 3777.5 9376.05 3824.78 9376.05 3888.74C9376.05 3947.97 9356.73 3994.42 9318.1 4028.07C9279.74 4061.72 9226.52 4078.54 9158.43 4078.54H9122.57V4311.73H8991.25Z" fill="#101010"/>
<path d="M9726.66 4106.49C9726.66 4069.78 9717.35 4040.72 9698.73 4019.31C9680.38 3997.89 9655.51 3987.19 9624.1 3987.19C9591.86 3987.19 9566.43 3997.89 9547.81 4019.31C9529.47 4040.44 9520.29 4069.5 9520.29 4106.49C9520.29 4143.48 9529.33 4172.26 9547.39 4192.84C9565.74 4213.42 9591.03 4223.71 9623.27 4223.71C9656.06 4223.71 9681.49 4213.42 9699.56 4192.84C9717.63 4172.26 9726.66 4143.48 9726.66 4106.49ZM9835.05 4311.73H9719.99L9721.66 4252.91C9705.54 4278.78 9686.08 4297.83 9663.29 4310.06C9640.78 4322.02 9613.26 4328 9580.74 4328C9526.55 4328 9482.77 4307.84 9449.42 4267.51C9416.35 4227.19 9399.81 4173.93 9399.81 4107.74C9399.81 4038.77 9416.07 3985.1 9448.59 3946.72C9481.38 3908.07 9526.82 3888.74 9584.91 3888.74C9615.21 3888.74 9641.75 3895.55 9664.54 3909.18C9687.61 3922.81 9706.93 3943.11 9722.49 3970.08V3902.5H9835.05V4311.73Z" fill="#101010"/>
<path d="M10061.8 4007.63C10073.8 3967.86 10090.9 3938.1 10113.1 3918.36C10135.6 3898.61 10163.4 3888.74 10196.5 3888.74C10204 3888.74 10216.4 3890.13 10233.6 3892.91C10236.9 3893.47 10239.4 3893.88 10241.1 3894.16L10223.2 4021.81C10214.3 4018.19 10205.3 4015.55 10196.1 4013.88C10187.2 4011.94 10177.7 4010.96 10167.7 4010.96C10131.6 4010.96 10105.6 4020.28 10089.8 4038.91C10073.9 4057.27 10066 4088.14 10066 4131.52V4311.73H9947.2V3902.5H10064.3L10061.8 4007.63Z" fill="#101010"/>
<path d="M10596.3 4106.49C10596.3 4069.78 10587 4040.72 10568.4 4019.31C10550 3997.89 10525.2 3987.19 10493.8 3987.19C10461.5 3987.19 10436.1 3997.89 10417.5 4019.31C10399.1 4040.44 10389.9 4069.5 10389.9 4106.49C10389.9 4143.48 10399 4172.26 10417 4192.84C10435.4 4213.42 10460.7 4223.71 10492.9 4223.71C10525.7 4223.71 10551.1 4213.42 10569.2 4192.84C10587.3 4172.26 10596.3 4143.48 10596.3 4106.49ZM10704.7 4311.73H10589.6L10591.3 4252.91C10575.2 4278.78 10555.7 4297.83 10532.9 4310.06C10510.4 4322.02 10482.9 4328 10450.4 4328C10396.2 4328 10352.4 4307.84 10319.1 4267.51C10286 4227.19 10269.5 4173.93 10269.5 4107.74C10269.5 4038.77 10285.7 3985.1 10318.2 3946.72C10351 3908.07 10396.5 3888.74 10454.6 3888.74C10484.9 3888.74 10511.4 3895.55 10534.2 3909.18C10557.3 3922.81 10576.6 3943.11 10592.1 3970.08V3902.5H10704.7V4311.73Z" fill="#101010"/>
<path d="M10816.8 4311.73V3902.5H10933.2V3966.75C10954.6 3940.05 10977.5 3920.44 11002 3907.93C11026.7 3895.13 11054.1 3888.74 11084.1 3888.74C11115.8 3888.74 11142.3 3894.16 11163.7 3905.01C11185.4 3915.58 11202.5 3931.84 11215 3953.81C11221.1 3965.22 11225.4 3978.15 11227.9 3992.61C11230.7 4006.79 11232.1 4029.18 11232.1 4059.77V4311.73H11113.3V4109.41C11113.3 4059.08 11107.4 4025.84 11095.8 4009.71C11084.1 3993.58 11064.1 3985.52 11035.7 3985.52C11019.3 3985.52 11004.2 3988.99 10990.3 3995.95C10976.7 4002.62 10965.3 4012.22 10956.1 4024.73C10948.9 4034.46 10943.6 4045.59 10940.2 4058.1C10937.2 4070.62 10935.7 4089.67 10935.7 4115.25V4311.73H10816.8Z" fill="#101010"/>
<path d="M11646.1 4106.49C11646.1 4069.78 11636.7 4040.72 11618.1 4019.31C11599.8 3997.89 11574.9 3987.19 11543.5 3987.19C11511.3 3987.19 11485.8 3997.89 11467.2 4019.31C11448.9 4040.44 11439.7 4069.5 11439.7 4106.49C11439.7 4143.48 11448.7 4172.26 11466.8 4192.84C11485.1 4213.42 11510.4 4223.71 11542.7 4223.71C11575.5 4223.71 11600.9 4213.42 11619 4192.84C11637 4172.26 11646.1 4143.48 11646.1 4106.49ZM11754.5 4311.73H11639.4L11641.1 4252.91C11624.9 4278.78 11605.5 4297.83 11582.7 4310.06C11560.2 4322.02 11532.7 4328 11500.1 4328C11445.9 4328 11402.2 4307.84 11368.8 4267.51C11335.7 4227.19 11319.2 4173.93 11319.2 4107.74C11319.2 4038.77 11335.5 3985.1 11368 3946.72C11400.8 3908.07 11446.2 3888.74 11504.3 3888.74C11534.6 3888.74 11561.2 3895.55 11583.9 3909.18C11607 3922.81 11626.3 3943.11 11641.9 3970.08V3902.5H11754.5V4311.73ZM11677.7 3688.09L11547.3 3842.02H11488.1L11570.2 3688.09H11677.7Z" fill="#101010"/>
<path d="M7939.28 4106.49C7939.28 4069.78 7929.96 4040.72 7911.34 4019.31C7893 3997.89 7868.12 3987.19 7836.72 3987.19C7804.48 3987.19 7779.05 3997.75 7760.43 4018.89C7742.08 4039.75 7732.91 4068.67 7732.91 4105.66C7732.91 4142.65 7741.94 4171.57 7760.01 4192.43C7778.35 4213.28 7803.64 4223.71 7835.88 4223.71C7868.68 4223.71 7894.11 4213.42 7912.18 4192.84C7930.24 4172.26 7939.28 4143.48 7939.28 4106.49ZM8047.67 4311.73H7932.61L7934.27 4252.91C7918.15 4278.78 7898.7 4297.83 7875.91 4310.06C7853.39 4322.02 7825.88 4328 7793.36 4328C7739.16 4328 7695.39 4307.84 7662.04 4267.51C7628.96 4227.19 7612.43 4173.93 7612.43 4107.74C7612.43 4038.5 7628.69 3984.54 7661.2 3945.89C7694 3907.23 7739.44 3887.9 7797.53 3887.9C7827.27 3887.9 7853.39 3894.72 7875.91 3908.34C7898.42 3921.97 7919.54 3943.52 7939.28 3973C7937.89 3962.99 7936.77 3952.01 7935.94 3940.05C7935.38 3927.81 7935.11 3913.91 7935.11 3898.33V3665.14H8047.67V4311.73Z" fill="#101010"/>
<path d="M8481.86 4107.74C8481.86 4074.37 8472.13 4047.81 8452.68 4028.07C8433.22 4008.04 8407.1 3998.03 8374.3 3998.03C8341.5 3998.03 8315.52 4007.91 8296.34 4027.65C8277.16 4047.4 8267.57 4074.09 8267.57 4107.74C8267.57 4141.12 8277.16 4167.81 8296.34 4187.84C8315.52 4207.86 8341.5 4217.87 8374.3 4217.87C8406.82 4217.87 8432.81 4207.86 8452.26 4187.84C8471.99 4167.81 8481.86 4141.12 8481.86 4107.74ZM8602.76 4108.58C8602.76 4171.43 8581.22 4223.71 8538.14 4265.43C8495.34 4307.14 8441 4328 8375.13 4328C8308.71 4328 8253.96 4307.14 8210.88 4265.43C8167.8 4223.71 8146.26 4171.43 8146.26 4108.58C8146.26 4046 8167.94 3993.72 8211.29 3951.73C8254.65 3909.74 8309.26 3888.74 8375.13 3888.74C8441.28 3888.74 8495.76 3909.46 8538.56 3950.89C8581.36 3992.33 8602.76 4044.89 8602.76 4108.58Z" fill="#101010"/>
<path d="M0 4311.73L92.9684 3701.02H229.711L347.276 4060.61C349.778 4068.11 352.418 4079.1 355.197 4093.56C358.255 4108.02 361.034 4124.57 363.535 4143.2C365.759 4124.29 368.26 4107.47 371.04 4092.73C373.819 4077.71 376.459 4066.72 378.961 4059.77L498.611 3701.02H633.269L726.654 4311.73H602.835L558.227 3943.39C554.892 3916.13 552.668 3895.55 551.557 3881.65C550.445 3867.74 549.889 3854.81 549.889 3842.85C549.889 3836.46 549.889 3831.73 549.889 3828.67C550.167 3825.33 550.445 3822.41 550.723 3819.91C546.554 3843.83 542.524 3864.54 538.633 3882.06C535.02 3899.31 531.685 3912.38 528.627 3921.28L399.389 4311.73H326.015L198.861 3921.28C197.749 3917.66 195.247 3907.65 191.356 3891.24C187.743 3874.83 182.602 3850.92 175.931 3819.49V3837.43C175.931 3865.8 173.43 3900.56 168.427 3941.72L168.01 3943.39L123.819 4311.73H0Z" fill="#101010"/>
<path d="M792.663 3734.39C792.663 3715.48 799.472 3699.21 813.091 3685.59C826.71 3671.96 842.969 3665.14 861.868 3665.14C881.045 3665.14 897.443 3671.96 911.062 3685.59C924.959 3698.93 931.907 3715.2 931.907 3734.39C931.907 3753.58 924.959 3769.99 911.062 3783.62C897.443 3797.24 881.045 3804.06 861.868 3804.06C842.969 3804.06 826.71 3797.1 813.091 3783.2C799.472 3769.29 792.663 3753.03 792.663 3734.39ZM803.085 4311.73V3902.5H921.485V4311.73H803.085Z" fill="#101010"/>
<path d="M1041.97 4311.73V3902.5H1158.28V3966.75C1179.68 3940.05 1202.61 3920.44 1227.07 3907.93C1251.81 3895.13 1279.18 3888.74 1309.2 3888.74C1340.88 3888.74 1367.43 3894.16 1388.83 3905.01C1410.51 3915.58 1427.6 3931.84 1440.11 3953.81C1446.22 3965.22 1450.53 3978.15 1453.03 3992.61C1455.81 4006.79 1457.2 4029.18 1457.2 4059.77V4311.73H1338.38V4109.41C1338.38 4059.08 1332.55 4025.84 1320.87 4009.71C1309.2 3993.58 1289.19 3985.52 1260.84 3985.52C1244.44 3985.52 1229.29 3988.99 1215.4 3995.95C1201.78 4002.62 1190.38 4012.22 1181.21 4024.73C1173.99 4034.46 1168.71 4045.59 1165.37 4058.1C1162.31 4070.62 1160.78 4089.67 1160.78 4115.25V4311.73H1041.97Z" fill="#101010"/>
<path d="M1563.93 3734.39C1563.93 3715.48 1570.73 3699.21 1584.35 3685.59C1597.97 3671.96 1614.23 3665.14 1633.13 3665.14C1652.31 3665.14 1668.71 3671.96 1682.32 3685.59C1696.22 3698.93 1703.17 3715.2 1703.17 3734.39C1703.17 3753.58 1696.22 3769.99 1682.32 3783.62C1668.71 3797.24 1652.31 3804.06 1633.13 3804.06C1614.23 3804.06 1597.97 3797.1 1584.35 3783.2C1570.73 3769.29 1563.93 3753.03 1563.93 3734.39ZM1574.35 4311.73V3902.5H1692.75V4311.73H1574.35Z" fill="#101010"/>
<path d="M1773.21 4239.98L1864.51 4192.84C1867.57 4208.69 1875.77 4221.21 1889.11 4230.39C1902.45 4239.56 1918.98 4244.15 1938.72 4244.15C1958.17 4244.15 1973.46 4240.68 1984.58 4233.72C1995.69 4226.49 2001.25 4216.62 2001.25 4204.11C2001.25 4184.36 1981.52 4167.81 1942.05 4154.46C1929.82 4150.29 1920.1 4146.82 1912.87 4144.04C1864.79 4125.96 1831.43 4107.74 1812.81 4089.39C1794.47 4071.03 1785.3 4048.37 1785.3 4021.39C1785.3 3981.35 1801 3948.95 1832.41 3924.2C1863.81 3899.45 1905.23 3887.07 1956.64 3887.07C1993.33 3887.07 2025.01 3894.44 2051.7 3909.18C2078.66 3923.92 2098.25 3944.78 2110.48 3971.75L2023.35 4015.14C2018.62 3999.84 2010.42 3988.3 1998.75 3980.51C1987.08 3972.45 1972.49 3968.41 1954.98 3968.41C1937.47 3968.41 1923.29 3972.03 1912.45 3979.26C1901.61 3986.49 1896.19 3995.95 1896.19 4007.63C1896.19 4027.93 1923.15 4046.84 1977.07 4064.36C1983.46 4066.31 1988.33 4067.84 1991.66 4068.95C2036.41 4083.69 2068.23 4100.93 2087.13 4120.68C2106.03 4140.14 2115.48 4165.03 2115.48 4195.35C2115.48 4235.95 2099.78 4268.21 2068.37 4292.12C2036.97 4316.04 1994.58 4328 1941.22 4328C1898.97 4328 1862.84 4320.21 1832.82 4304.64C1803.09 4288.79 1783.21 4267.23 1773.21 4239.98Z" fill="#101010"/>
<path d="M2217.21 4311.73V3995.53H2160.09V3902.5H2217.21V3766.51H2336.02V3902.5H2393.14V3995.53H2336.02V4311.73H2217.21Z" fill="#101010"/>
<path d="M2748.75 4064.78C2745.42 4038.91 2735.97 4019.45 2720.4 4006.38C2705.12 3993.03 2684.13 3986.35 2657.45 3986.35C2630.77 3986.35 2609.37 3993.03 2593.25 4006.38C2577.41 4019.45 2567.26 4038.91 2562.81 4064.78H2748.75ZM2866.32 4136.53H2559.06C2563.79 4166.01 2574.49 4188.11 2591.16 4202.85C2607.84 4217.32 2630.49 4224.55 2659.12 4224.55C2680.8 4224.55 2699.42 4220.37 2714.98 4212.03C2730.82 4203.69 2744.03 4191.03 2754.59 4174.07L2850.47 4222.04C2828.24 4257.92 2801.28 4284.62 2769.6 4302.14C2737.91 4319.38 2700.25 4328 2656.62 4328C2590.47 4328 2538.08 4308.25 2499.45 4268.76C2460.81 4229.27 2441.5 4176.16 2441.5 4109.41C2441.5 4045.17 2461.65 3992.33 2501.95 3950.89C2542.52 3909.46 2594.36 3888.74 2657.45 3888.74C2722.49 3888.74 2773.9 3908.21 2811.7 3947.14C2849.5 3985.8 2868.4 4038.64 2868.4 4105.66C2868.4 4109.27 2868.26 4113.31 2867.98 4117.76C2867.71 4121.93 2867.15 4128.18 2866.32 4136.53ZM2776.27 3688.09L2645.78 3842.02H2586.58L2668.71 3688.09H2776.27Z" fill="#101010"/>
<path d="M3071.01 4007.63C3082.96 3967.86 3100.06 3938.1 3122.29 3918.36C3144.8 3898.61 3172.6 3888.74 3205.67 3888.74C3213.18 3888.74 3225.54 3890.13 3242.78 3892.91C3246.11 3893.47 3248.61 3893.88 3250.28 3894.16L3232.35 4021.81C3223.46 4018.19 3214.43 4015.55 3205.25 4013.88C3196.36 4011.94 3186.91 4010.96 3176.91 4010.96C3140.77 4010.96 3114.79 4020.28 3098.95 4038.91C3083.1 4057.27 3075.18 4088.14 3075.18 4131.52V4311.73H2956.37V3902.5H3073.51L3071.01 4007.63Z" fill="#101010"/>
<path d="M3298.22 3734.39C3298.22 3715.48 3305.03 3699.21 3318.65 3685.59C3332.27 3671.96 3348.53 3665.14 3367.43 3665.14C3386.61 3665.14 3403 3671.96 3416.62 3685.59C3430.52 3698.93 3437.47 3715.2 3437.47 3734.39C3437.47 3753.58 3430.52 3769.99 3416.62 3783.62C3403 3797.24 3386.61 3804.06 3367.43 3804.06C3348.53 3804.06 3332.27 3797.1 3318.65 3783.2C3305.03 3769.29 3298.22 3753.03 3298.22 3734.39ZM3308.65 4311.73V3902.5H3427.04V4311.73H3308.65Z" fill="#101010"/>
<path d="M3856.87 4107.74C3856.87 4074.37 3847.14 4047.81 3827.68 4028.07C3808.23 4008.04 3782.1 3998.03 3749.31 3998.03C3716.51 3998.03 3690.52 4007.91 3671.35 4027.65C3652.17 4047.4 3642.58 4074.09 3642.58 4107.74C3642.58 4141.12 3652.17 4167.81 3671.35 4187.84C3690.52 4207.86 3716.51 4217.87 3749.31 4217.87C3781.83 4217.87 3807.81 4207.86 3827.27 4187.84C3847 4167.81 3856.87 4141.12 3856.87 4107.74ZM3977.77 4108.58C3977.77 4171.43 3956.23 4223.71 3913.15 4265.43C3870.35 4307.14 3816.01 4328 3750.14 4328C3683.71 4328 3628.96 4307.14 3585.88 4265.43C3542.8 4223.71 3521.26 4171.43 3521.26 4108.58C3521.26 4046 3542.94 3993.72 3586.3 3951.73C3629.66 3909.74 3684.27 3888.74 3750.14 3888.74C3816.29 3888.74 3870.76 3909.46 3913.56 3950.89C3956.37 3992.33 3977.77 4044.89 3977.77 4108.58Z" fill="#101010"/>
</svg>
