<svg width="7800" height="7800" viewBox="0 0 7800 7800" fill="none" xmlns="http://www.w3.org/2000/svg">
<rect width="7800" height="7800" rx="1500" fill="#F4B005"/>
<rect x="395" y="395" width="7009" height="7009" rx="1300" stroke="black" stroke-width="400"/>
<rect x="5337.96" y="1521.84" width="1065" height="1600.69" rx="129" transform="rotate(50.2112 5337.96 1521.84)" fill="black"/>
<path d="M6482.11 1149.15C6555.3 1138.45 6613.95 1208.87 6590.19 1278.92L6057.13 2849.98C6032.28 2923.22 5936.8 2940.96 5887.31 2881.53L4778.79 1550.52C4729.3 1491.09 4764.01 1400.4 4840.54 1389.21L6482.11 1149.15Z" fill="black"/>
<path fill-rule="evenodd" clip-rule="evenodd" d="M6668.99 5106.24C7035.78 5598.67 7010.53 6366.84 6559.38 6366.84C6559.38 7236.07 5127.04 7236.07 5127.04 6423.31H2621.67C2621.67 7234.43 1199.96 7222.98 1199.96 6393.85C972.864 6361.99 878.499 6287.05 839.009 6048.45C816.317 5716.44 839.007 5524.54 943.775 5171.85C1047.92 4924.89 1150.57 4841.92 1322.82 4760.27C1372.42 4736.76 1408 4690.58 1421.46 4637.36C1783.99 3204.51 4634.78 3407.96 5433 4677.68C5451.39 4706.93 5480.33 4728.09 5514.17 4735.09L6305.09 4898.77C6446.46 4928.03 6582.76 4990.47 6668.99 5106.24ZM1925.96 6636.12C2154.69 6636.12 2340.11 6450.7 2340.11 6221.97C2340.11 5993.23 2154.69 5807.81 1925.96 5807.81C1697.23 5807.81 1511.8 5993.23 1511.8 6221.97C1511.8 6450.7 1697.23 6636.12 1925.96 6636.12ZM5835.03 6636.12C6063.76 6636.12 6249.18 6450.7 6249.18 6221.97C6249.18 5993.23 6063.76 5807.81 5835.03 5807.81C5606.3 5807.81 5420.88 5993.23 5420.88 6221.97C5420.88 6450.7 5606.3 6636.12 5835.03 6636.12ZM3256.81 4886.2V4018.6C3256.81 4000.52 3241.62 3985.86 3223.54 3985.95C2362.6 3990.31 2134.67 4166.98 1990.59 4746.68C1968.62 4835.06 2037.3 4918.94 2128.37 4918.94H3224.07C3242.15 4918.94 3256.81 4904.28 3256.81 4886.2ZM4964.26 4816.97C4903.4 4461.87 4393.48 4056.01 3641.33 3987.81C3617.66 3985.66 3597.3 4004.44 3597.3 4028.21V4886.19C3597.3 4904.28 3611.95 4918.93 3630.04 4918.93H4866.69C4924.56 4918.93 4974.04 4874.02 4964.26 4816.97Z" fill="black"/>
</svg>
